<svg width="1664" height="841" viewBox="0 0 1664 841" fill="none" xmlns="http://www.w3.org/2000/svg">
<path d="M338.571 606.47C358.523 605.97 360.256 603.267 352.088 585.842C353.88 577.937 349.149 573.971 342.714 571.914C336.778 569.857 330.519 568.681 324.113 568.623C319.97 568.564 314.622 570.826 312.477 565.449C310.156 559.66 315.533 558.279 319.265 556.163C324.025 553.46 324.378 550.61 319.382 547.759C307.661 547.081 301.451 536.982 292.332 531.853C290.907 531.051 289.775 529.734 289.592 528.109C288.703 520.212 291.33 513.673 296.932 507.062C305.248 497.247 302.663 482.408 292.966 480.968C280.565 479.117 278.508 474.974 286.09 465.012C288.382 462.015 291.849 458.224 287.882 453.288C284.003 448.439 280.036 448.88 275.129 451.054C254.971 460.076 232.374 464.366 215.067 478.764C205.605 486.639 195.115 480.851 185.858 484.582C174.927 488.99 165.436 487.726 157.532 478.412C155.093 475.561 152.301 476.061 148.569 476.325C139.196 476.972 127.736 479.381 120.948 477.559C108.959 474.356 91.71 472.153 88.7715 453.699C88.0075 448.939 84.2756 444.296 78.2518 446.059C72.2867 447.793 68.0553 452.259 67.7908 458.694C67.6439 462.368 69.1719 466.188 70.3473 469.831C73.4915 479.587 77.6053 495.748 75.0195 498.775C65.3813 510 59.6807 524.927 46.4576 532.832C44.0774 534.272 39.6403 533.302 36.4962 532.362C23.7138 528.542 11.578 529.423 0.0297852 536.299V545.085C9.52103 570.591 18.1895 577.203 38.7588 570.65C63.2656 562.834 88.8303 558.661 112.838 549.023C114.924 548.2 116.775 548.171 118.274 546.084C125.12 536.623 138.138 539.943 141.311 543.91C152.27 557.63 163.904 556.683 177.171 551.559C178.23 551.15 179.43 551.351 180.304 552.075C188.04 558.484 197.2 563.104 206.751 562.716C220.474 562.128 235.137 570.444 240.72 583.491C246.215 596.273 239.544 604.237 232.58 613.258C222.619 626.158 225.733 641.115 238.339 640.997C247.361 640.909 255.236 642.995 263.258 645.816C265.697 646.668 267.489 646.639 270.016 645.816C287.412 640.262 294.288 616.167 316.62 619.34C317.12 619.399 318.295 618.047 318.413 617.225C320.293 604.442 329.961 606.676 338.571 606.47Z" fill="white"/>
<path d="M304.749 404.039C305.043 424.873 288.881 442.151 262.494 444.678C245.216 446.353 233.844 457.431 220.18 464.807C214.215 468.01 207.515 468.95 202.696 471.36C182.773 481.35 166.347 476.473 149.069 466.07C138.843 459.929 127.442 468.98 116.129 465.336C109.135 463.073 104.904 459.165 103.523 453.2C102.024 446.735 107.989 446.324 112.896 444.943C119.949 442.974 123.828 435.128 125.003 430.104C126.942 421.905 129.558 415.47 136.316 410.886C138.755 409.211 139.578 408.271 137.756 405.45C128.353 390.699 127.559 372.892 120.977 357.053C118.009 349.942 123.71 346.563 129.322 343.977C134.347 341.656 140.459 339.569 132.79 333.31C127.266 328.785 130.204 324.084 133.142 320.616C142.046 310.214 153.389 303.779 167.464 304.984C177.513 305.865 186.593 311.742 197.759 305.718C203.254 302.75 208.338 311.184 211.129 316.826C216.095 326.905 220.944 335.25 233.344 324.73C238.163 320.646 246.215 320.058 250.064 322.761C263.522 332.253 274.13 322.086 279.184 315.21C285.59 306.512 288.969 293.112 279.008 281.623C273.836 275.658 274.395 267.724 282.005 264.521C288.676 261.729 296.786 262.2 300.047 271.515C301.634 276.069 305.013 280.918 304.426 285.178C302.369 299.577 315.474 309.715 314.152 323.849C313.741 328.315 316.591 333.516 322.174 334.809C329.226 336.425 327.316 329.667 329.432 326.611C331.225 323.996 332.87 319.852 336.955 321.38C340.804 322.791 339.629 326.963 340.187 330.284C340.951 334.897 329.579 337.336 338.483 343.301C345.711 348.15 345.858 339.569 349.649 338.57C353.557 337.513 358.964 336.484 361.843 338.365C366.016 341.097 361.638 344.771 360.168 348.238C355.702 358.67 350.854 367.367 337.366 368.102C330.96 368.455 326.435 374.361 324.349 380.708C321.204 390.199 315.034 396.164 305.366 398.574C302.281 395.724 299.43 392.344 294.494 393.902C293.201 394.107 291.614 394.578 292.084 396.106C292.76 398.28 294.934 397.193 296.521 397.31C300.9 397.457 302.075 401.689 304.749 404.039Z" fill="white"/>
<path d="M612.906 0.0293685C614.786 9.22677 620.634 15.2213 628.597 19.482C635.532 23.1551 640.85 28.4444 646.051 34.3213C652.722 41.8732 655.925 55.8309 672.204 47.4562C679.432 43.7244 684.692 53.0099 682.635 58.7106C679.139 68.4369 684.663 72.6095 689.453 78.7509C694.624 85.3625 696.064 93.7959 694.654 102.229C691.98 118.391 697.416 126.237 713.372 129.087C717.633 129.851 722.158 130.409 725.948 132.26C735.087 136.756 735.293 147.423 726.536 152.565C717.192 158.031 708.053 163.731 698.562 151.919C694.389 146.718 688.424 146.483 684.31 153.241C682.753 155.797 680.99 159.353 677.934 158.001C661.831 150.861 653.016 165.465 641.027 170.225C633.886 173.076 629.861 183.478 619.047 177.718C617.313 176.808 610.996 181.509 608.85 184.918C599.124 200.345 582.963 209.513 571.973 223.735C567.477 229.582 562.834 234.548 568.799 241.395C572.178 245.274 570.65 248.271 569.034 251.944C567.918 254.412 564.773 257.351 567.389 259.907C583.638 275.863 561.953 283.239 559.161 294.787C557.897 300.076 553.49 296.903 551.139 292.877C544.909 282.269 535.624 277.156 523.135 278.39C492.605 281.358 468.539 268.164 446.912 248.359C442.269 244.128 443.797 241.571 446.676 237.428C450.996 231.257 448.528 226.938 441.946 223.676C425.872 215.742 424.462 198.875 440.006 189.707C452.113 182.567 458.107 169.638 470.772 162.556C478.5 158.236 477.325 144.426 478.03 134.347C478.941 121.271 481.409 109.076 496.777 105.373C502.684 103.963 502.008 100.202 499.804 96.558C490.842 81.8657 492.399 65.6159 492.869 49.6601C493.428 31.5591 507.121 23.1845 523.841 29.9724C531.921 33.2634 540.061 36.3195 548.201 39.4636C548.641 39.6399 549.2 40.1689 549.493 40.0513C560.983 35.4673 574.97 32.617 583.374 26.1523C591.66 19.7759 598.125 8.02201 607.029 0C608.997 0.0293847 610.937 0.0293685 612.906 0.0293685Z" fill="white"/>
<path d="M789.448 404.421C781.544 394.636 773.58 391.462 764.559 400.777C761.533 403.922 757.83 404.01 753.893 404.451C738.671 406.096 735.498 413.383 743.726 426.43C745.606 429.398 749.426 432.601 745.753 436.774C742.756 440.182 737.672 441.034 735.145 438.566C726.624 430.25 720.453 437.273 715.369 441.769C705.496 450.496 698.708 451.055 693.86 437.508C689.423 425.137 680.96 421.817 667.59 421.17C652.868 420.465 638.323 414.383 619.282 416.116C626.187 409.71 630.095 406.419 633.651 402.776C642.378 393.784 639.557 377.681 628.45 371.716C623.924 369.277 620.927 372.304 618.165 374.537C612.024 379.473 605.089 379.503 599.006 376.329C592.336 372.862 598.33 366.838 597.919 362.048C596.744 348.326 607.058 339.158 610.76 327.374C614.698 314.915 611.553 304.572 599.77 298.431C597.654 297.314 595.304 296.638 593.041 295.815C574.499 288.91 574.382 288.881 581.552 270.838C582.874 267.518 583.697 264.844 582.286 261.2C572.06 234.813 576.821 222.971 601.768 210.453C608.115 207.279 609.79 200.08 612.788 194.409C616.96 186.563 620.986 185.123 626.922 191.97C632.916 198.905 635.855 198.288 639.851 189.443C645.052 177.953 658.686 171.43 668.09 169.755C681.224 167.404 695.652 157.795 710.962 168.903C715.869 172.458 728.357 168.668 735.674 164.907C742.815 161.233 748.104 160.822 754.539 164.466C762.796 169.138 756.861 175.514 756.861 181.274C756.861 187.239 754.304 194.291 762.12 197.906C762.532 198.111 763.12 198.552 763.12 198.905C763.795 232.815 793.562 216.917 809.165 225.028C814.308 227.702 821.007 226.203 823.005 234.225C823.74 237.163 827.266 240.719 830.792 239.896C841.9 237.31 843.398 245.421 846.308 252.502C849.393 259.995 851.244 266.695 843.369 272.954C839.255 276.216 839.667 281.476 842.429 286.177C847.189 294.199 843.222 303.015 838.991 307.599C829.117 318.295 829.353 327.756 836.229 339.158C840.577 346.357 835.905 351.587 829.97 354.115C813.25 361.196 804.581 376.006 794.003 389.141C790.535 393.343 793.18 398.75 789.448 404.421Z" fill="white"/>
<path d="M1051.82 341.479C1042.83 343.683 1038.1 329.901 1030.31 335.514C1018.09 344.27 1007.75 355.73 1000.84 369.13C995.229 380.09 973.014 391.433 961.143 387.936C946.833 383.705 932.846 379.826 923.325 366.603C920.24 362.313 913.863 359.844 908.515 357.875C903.872 356.171 901.228 354.291 900.258 349.148C897.408 334.103 873.107 319.352 857.944 323.201C856.651 323.525 855.652 324.965 854.418 325.729C850.598 328.05 847.542 336.278 843.252 331.958C839.344 328.021 839.52 319.058 843.428 314.092C851.832 303.484 858.62 293.552 848.776 280.359C847.483 278.596 849.099 277.185 850.422 275.54C863.762 258.79 856.651 236.693 836.435 231.463C834.613 230.992 831.586 230.787 831.175 229.729C823.241 208.014 802.642 216.212 787.715 211.217C784.13 210.012 776.931 210.423 776.842 209.483C775.52 197.847 771.994 187.356 767.41 176.484C765.147 171.048 768.115 160.587 768.262 152.388C768.35 147.07 769.819 142.927 774.021 139.694C788.92 128.146 790.242 121.74 784.864 102.434C783.307 96.8808 783.454 88.8 786.451 84.3629C797.705 67.8194 804.728 46.633 827.649 41.1381C837.698 38.7285 839.755 29.7074 841.107 22.2437C843.075 11.2539 850.187 8.08032 859.002 6.17032C869.14 3.96647 874.782 9.10879 876.692 18.6588C877.514 22.8314 881.011 25.3291 883.656 25.0941C897.055 24.0068 904.901 35.7901 916.567 38.4347C922.767 39.8451 921.092 46.3392 923.266 50.3355C924.735 53.0095 925.264 55.9186 929.173 55.1546C932.317 54.5375 932.199 51.9223 932.522 49.5127C933.022 45.6927 933.786 41.8727 934.139 38.0527C935.314 24.0949 941.984 21.0096 954.737 26.2694C965.404 30.6771 976.746 27.0922 987.325 25.0941C1014.65 19.9224 1018.06 27.1804 1017.77 45.6927C1017.62 55.3015 1025.05 61.7367 1032.34 63.9993C1050.35 69.6118 1055.09 84.8624 1061.43 99.2022C1062.78 102.258 1062.52 106.519 1066.22 107.401C1070.81 108.517 1070.89 103.375 1072.86 100.965C1080.62 91.474 1087.17 92.2086 1091.38 103.551C1094.23 111.191 1095.93 119.096 1102.04 125.325C1104.28 127.588 1107.54 132.231 1103.1 135.61C1087.23 147.569 1089.52 165.376 1087.76 181.861C1086.29 195.525 1074.01 211.54 1061.61 209.571C1047.97 207.367 1044.27 218.445 1039.63 223.676C1034.08 229.935 1039.72 242.864 1046.15 248.564C1065.08 265.284 1060.23 285.736 1054.62 304.248C1051.44 314.709 1047.5 323.025 1052.62 333.457C1053.53 335.572 1052.09 338.922 1051.82 341.479Z" fill="white"/>
<path d="M1296.19 630.242C1284.96 645.786 1274.47 647.696 1262.19 635.266C1256.19 629.213 1250.17 625.981 1241.65 626.892C1235.68 627.538 1228.37 626.862 1226.28 621.074C1220.96 606.234 1207.62 607.204 1196.34 603.355C1181.85 598.418 1166.28 596.508 1153 588.192C1152.58 587.928 1152.26 587.516 1151.85 587.311C1142.01 582.227 1135.51 593.599 1125.7 592.365C1117.79 591.366 1108.57 587.869 1100.93 597.301C1091.82 608.585 1076.48 610.671 1063.75 616.137C1055.03 619.898 1040.42 602.855 1040.98 592.071C1041.25 586.694 1047.45 580.846 1040.92 575.909C1033.75 570.473 1029.35 560.482 1019.27 560.042C1011.01 559.689 1008.1 556.721 1008.42 548.787C1008.6 544.527 1004.66 542.088 1001.81 539.561C997.257 535.505 996.111 530.569 997.345 525.015C1000.17 512.233 995.465 500.626 990.822 489.43C988.589 484.053 985.562 478.117 986.796 473.357C988.971 465.07 995.7 472.182 1000.4 471.77C1004.54 471.417 1007.57 470.83 1009.8 466.628C1016.5 453.992 1011.21 435.686 997.698 430.749C983.123 425.431 984.034 411.003 981.36 400.865C979.656 394.312 991.175 387.671 1001.25 385.409C1006.63 384.204 1024.7 387.701 1012.83 370.158C1009.6 365.368 1028.11 345.886 1034.78 345.827C1039.01 345.798 1039.81 347.209 1040.1 351.881C1040.54 358.933 1048.03 361.313 1053 359.403C1057.91 357.523 1066.22 354.996 1061.55 345.005C1059.55 340.773 1061.58 334.691 1061.55 329.46C1061.52 325.699 1062.46 323.025 1066.4 321.556C1070.22 320.145 1071.07 323.583 1073.36 324.67C1084 329.842 1090.94 341.302 1101.13 344.946C1116.59 350.47 1133.07 359.344 1150.53 349.677C1152.79 348.413 1157.23 348.913 1156.9 350.382C1152.76 369.835 1171.04 364.31 1178.53 367.984C1194.13 375.624 1197.87 380.678 1186.7 394.4C1179.38 403.392 1184.76 416.88 1174.04 424.402C1172.74 425.313 1175.36 433.423 1182.23 435.363C1191.87 438.095 1203.21 441.651 1191.75 455.609C1189.14 458.782 1189.02 464.747 1192.17 467.98C1197.22 473.151 1196.98 464.424 1200.28 463.983C1201.72 463.777 1203.1 463.278 1204.48 462.808C1210.88 460.633 1218.99 456.343 1223.14 463.072C1226.58 468.655 1224.75 477.676 1218.94 482.496C1212.88 487.52 1210.59 494.485 1207.62 500.773C1202.24 512.203 1206.04 522.87 1214.91 531.509C1221.7 538.121 1227.81 539.561 1237.62 534.154C1252.73 525.867 1257.08 529.129 1254.14 546.025C1250.61 566.212 1260.93 576.85 1277.53 580.288C1295.48 583.99 1300.07 593.834 1298.66 609.672C1295.66 616.313 1299.6 623.718 1296.19 630.242Z" fill="white"/>
<path d="M1388.57 279.977C1396.95 277.509 1403.97 271.133 1408.82 279.037C1415.17 289.439 1420.01 301.223 1414.2 313.388C1412.08 317.795 1411.29 320.793 1413.08 325.259C1419.78 342.067 1418.69 344.712 1400.97 357.024C1396.68 350.853 1400.15 342.302 1393.33 336.367C1386.81 330.725 1382.52 329.491 1375.91 334.809C1367.53 341.538 1359.28 343.683 1348.7 337.248C1336.77 329.99 1321.63 333.898 1311.29 338.335C1295.6 345.064 1292.78 334.839 1287.11 326.963C1283.43 321.88 1280.88 313.417 1273.56 316.914C1264.54 321.204 1249.49 312.212 1246.15 329.05C1244.38 337.865 1237.83 331.959 1236.68 330.313C1231.01 322.086 1226.63 326.141 1219.7 329.02C1209.18 333.34 1196.46 338.218 1186.2 335.926C1169.86 332.253 1154.49 346.152 1137.57 335.691C1133.93 333.457 1120.79 339.628 1111.24 337.042C1102.04 334.574 1090.49 321.145 1090.44 311.36C1090.32 297.696 1086.2 294.964 1073.22 300.223C1070.89 301.164 1068.63 302.28 1066.46 300.576C1063.72 298.402 1066.31 296.227 1066.84 294.082C1066.96 293.612 1066.93 293.024 1067.22 292.701C1081.71 275.217 1067.37 261.788 1060.2 247.919C1056.79 241.337 1047.56 233.432 1051.35 228.584C1057.11 221.208 1064.55 212.481 1075.66 211.129C1090.49 209.366 1095.99 200.227 1095.34 186.505C1094.11 160.47 1109.36 141.899 1125.08 124.503C1132.16 116.657 1147.38 118.42 1152.5 105.961C1152.58 105.726 1153.47 105.873 1153.88 105.638C1162.78 100.408 1165.78 120.742 1178.35 109.899C1186.55 102.817 1194.31 115.364 1202.21 120.566C1221.14 132.995 1240.56 145.719 1264.6 146.395C1268.65 146.512 1274.15 146.718 1275.32 149.686C1282.61 167.992 1299.01 170.138 1314.96 173.399C1326.01 175.662 1329.3 182.744 1325.1 192.323C1321.19 201.315 1327.63 203.372 1331.74 209.131C1340.79 221.766 1356.72 216.389 1366.18 225.968C1369.65 229.465 1371.91 224.147 1374.2 222.266C1382.08 215.831 1390.22 215.654 1394.92 224.558C1399.24 232.727 1410.99 242.982 1396.12 251.621C1382.81 259.349 1393.3 269.987 1388.57 279.977Z" fill="white"/>
<path d="M1410.44 442.534C1410.76 431.162 1408.61 421.582 1417.63 414.795C1420.28 412.796 1418.96 409.682 1417.22 406.978C1400.65 381.443 1403.27 367.044 1426.68 349.002C1431.68 345.153 1435.18 339.658 1441.26 336.543C1447.2 333.487 1446.14 326.846 1440.79 325.318C1425.51 320.999 1421.92 312.771 1427.27 298.225C1428.3 295.405 1424.45 290.38 1427.39 286.119C1432.06 279.331 1426.66 265.285 1442.46 266.402C1451.81 267.048 1459.54 258.909 1470.5 262.288C1480.31 265.315 1490.6 263.757 1497.47 274.982C1502 282.387 1514.43 279.39 1518.95 271.515C1524.1 262.553 1535.91 260.407 1544.37 267.166C1547.4 269.576 1550.16 272.455 1552.6 275.452C1555.15 278.597 1561.12 280.418 1558.74 285.796C1556.77 290.262 1553.22 293.965 1547.19 292.437C1540.61 290.791 1542.02 295.17 1543.81 297.902C1548.66 305.337 1554.98 309.509 1564.76 306.865C1577.02 303.574 1589.27 301.193 1600.02 311.948C1602.73 314.652 1608.34 316.18 1612.25 315.621C1633.32 312.595 1634.58 329.109 1639.14 342.156C1641.63 349.267 1641.08 357.729 1649.95 361.344C1666.14 367.955 1663.94 381.443 1661.59 394.519C1660.15 402.571 1656.53 410.181 1656.85 418.585C1657.12 425.696 1652.15 427.753 1646.57 428.458C1635.02 429.898 1626.53 435.922 1618.04 443.65C1610.16 450.82 1599.85 453.729 1593.56 464.748C1587.27 475.768 1572.29 473.681 1561.3 470.185C1542.31 464.161 1522.92 460.605 1503.44 457.373C1492.62 455.58 1487.57 466.012 1481.49 471.977C1464.65 488.521 1452.46 488.491 1439.47 469.362C1435.79 463.926 1432.56 457.931 1424.89 460.135C1410.99 464.161 1409.05 457.079 1410.55 445.972C1410.64 444.12 1410.44 442.152 1410.44 442.534Z" fill="white"/>
<path d="M0.0587679 606.53C5.40678 604.649 7.87509 599.477 8.11017 595.187C8.78601 583.786 17.6896 581.553 25.0945 580.612C50.3066 577.38 74.8721 572.091 98.3799 562.453C107.283 558.809 116.951 559.72 125.972 555.753C138.901 550.052 147.57 561.689 157.766 566.566C160.999 568.124 164.202 573.707 167.316 568.917C174.192 558.368 180.892 564.656 188.561 567.095C196.407 569.593 203.43 573.619 213.156 572.355C223.823 570.974 225.469 585.049 232.256 591.308C237.193 595.863 231.199 600.858 228.525 605.207C220.62 618.019 210.042 629.861 221.707 646.581C225.292 651.694 223.353 659.863 222.031 666.621C219.298 680.344 224.734 687.984 238.927 689.483C242.247 689.835 243.334 691.216 243.188 693.773C242.864 699.767 246.361 708.112 238.809 710.786C226.703 715.047 214.155 717.78 203.841 726.243C202.225 727.594 196.965 727.242 195.555 725.684C184.33 713.49 172.958 714.665 157.884 719.749C147.952 723.099 135.287 719.337 127.794 705.85C123.651 698.386 113.219 692.685 101.612 694.008C92.0916 695.095 82.1595 695.212 72.7858 693.626C66.6738 692.597 55.155 689.688 57.2707 683.547C60.3855 674.584 57.1238 661.89 67.8198 656.572C79.1329 650.93 75.0191 648.638 67.8198 642.32C60.0623 635.503 50.571 631.947 42.6372 625.63C39.0522 622.779 32.9108 619.371 26.3874 622.721C8.72725 631.8 8.63909 631.595 0 615.345C0.0587693 612.377 0.0587679 609.439 0.0587679 606.53Z" fill="white"/>
<path d="M554.46 594.805C547.525 589.604 540.649 593.218 533.744 594.688C531.687 596.568 531.981 598.831 532.51 601.24C533.185 604.355 535.272 608.205 530.893 609.85C526.926 611.319 525.251 607.588 523.283 604.914C519.139 599.301 515.819 592.66 507.679 591.779C496.455 608.557 489.255 626.541 490.813 647.198C490.607 650.313 490.96 669.119 486.699 670.911C481.792 675.319 484.848 677.405 488.55 680.902C500.01 691.716 509.354 703.264 499.599 720.689C497.747 723.98 497.336 733.324 501.773 734.353C508.238 735.852 515.437 743.021 521.784 737.556C533.332 727.624 536.829 737.82 536.3 744.461C535.36 756.509 542.647 760.153 550.787 762.239C561.718 765.031 563.187 777.842 569.74 780.81C580.201 785.541 591.808 789.684 603.503 792.446C608.469 793.622 610.232 792.094 609.762 787.951C607.969 772.318 618.724 768.997 629.45 771.407C640.439 773.875 640.116 768.851 639.146 762.151C636.443 743.609 633.975 725.009 629.538 706.702C627.466 698.101 636.557 669.608 638.537 663.576C638.779 662.839 638.729 662.063 638.413 661.354C636.969 658.11 632.913 648.481 633.446 643.76C635.326 627.246 626.834 612.289 625.63 596.363C624.572 582.464 615.727 580.025 606.588 583.58C593.365 588.693 582.081 600.535 566.39 590.456C566.037 590.221 564.127 592.102 563.216 593.189C560.689 596.186 557.78 597.303 554.46 594.805Z" fill="white"/>
<path d="M742.051 664.74C747.987 671.939 759.741 666.885 765.324 676.053C766.822 678.522 771.994 675.671 773.463 672.292C778.988 659.598 789.449 658.129 801.379 659.186C810.194 659.98 814.308 658.129 809.724 647.756C802.789 631.976 806.11 625.776 823.123 624.571C833.849 623.807 839.079 621.603 839.403 609.761C839.579 603.591 847.248 599.594 852.537 602.386C865.731 609.321 876.045 604.178 887.182 597.919C894.323 593.923 903.432 593.717 909.691 598.331C924.501 609.291 940.721 613.464 958.734 615.991C971.046 617.695 979.509 630.977 984.769 640.674C991.145 652.428 998.197 654.397 1008.33 651.928C1016.03 650.048 1019.62 651.723 1020.47 659.304C1020.82 662.331 1021.23 665.798 1024.17 666.768C1039.89 671.91 1036.57 684.487 1034.78 695.418C1033.64 702.323 1034.05 707.936 1035.87 714.753C1039.39 727.947 1029.73 736.116 1020.09 742.727C1003.87 753.864 998.697 774.903 1008.6 792.417C1014.77 803.318 1010.57 814.984 998.374 816.923C991.674 818.011 989.353 822.506 984.945 825.562C973.602 833.408 957.676 830.822 946.363 840.549C944.188 842.429 941.984 837.963 940.104 835.759C930.701 824.593 919.153 821.067 904.255 822.183C893.235 823.006 880.864 821.537 872.401 811.605C870.58 809.46 866.789 807.021 869.14 804.405C874.429 798.558 870.844 795.237 867.054 791.182C865.878 789.919 865.379 787.686 865.202 785.864C863.645 769.085 857.327 765.5 843.575 776.813C832.879 785.599 820.185 787.656 808.46 792.71C796.178 798 780.898 789.742 775.755 776.931C774.139 772.876 771.642 769.203 769.908 765.206C766.205 756.802 754.657 749.25 767.469 738.878C769.261 737.438 769.349 731.767 768.086 729.063C763.061 718.367 766.911 711.55 774.551 703.381C782.102 695.3 771.994 690.422 766.617 686.749C759.359 681.783 750.338 682.87 741.845 683.017C739.818 676.847 739.553 670.793 742.051 664.74Z" fill="white"/>
<path d="M633.152 423.022C642.849 424.814 651.87 422.464 656.248 432.014C660.215 440.682 667.032 433.865 671.263 432.836C677.405 431.367 680.373 432.278 682.371 437.626C684.545 443.415 689.511 446.765 693.361 451.084C699.003 457.431 704.292 458.754 712.284 453.523C729.092 442.592 733.941 444.238 745.548 461.516C755.127 475.767 778.87 481.086 791.829 469.097C801.555 460.105 805.052 468.774 809.313 472.329C815.719 477.677 807.667 480.733 804.876 483.172C796.09 490.812 796.795 497.982 804.905 504.829C816.13 514.261 822.183 525.78 824.651 540.384C825.886 547.672 832.938 553.49 836.053 560.924C838.609 567.036 843.869 564.215 848.541 562.305C854.389 559.925 858.444 554.43 865.085 553.49C867.906 553.079 872.343 551.08 872.343 554.695C872.372 564.568 874.547 571.65 885.948 572.237C881.511 578.467 885.919 589.486 879.101 592.043C875.634 593.336 865.79 605.589 861.265 590.662C859.913 586.166 854.83 584.314 850.657 584.021C845.72 583.697 846.426 590.015 844.222 591.954C835.201 599.888 829.618 611.466 816.923 615.727C805.728 619.488 795.179 625.218 797.588 640.498C798.528 646.463 797.559 650.077 789.39 649.519C783.278 649.108 776.519 649.255 772.641 658.099C769.232 665.886 752.953 661.596 748.369 651.429C743.991 641.732 739.789 635.444 730.327 646.169C726.859 650.077 723.392 648.638 719.836 647.492C714.958 645.905 710.228 640.733 705.996 648.99C704.821 651.282 699.767 651.341 698.709 647.991C690.481 622.044 671.44 627.716 652.898 632.006C646.698 633.446 642.702 633.211 642.143 625.159C641.174 611.613 634.356 599.359 632.799 585.754C632.006 578.878 627.333 572.414 618.665 574.471C607.704 577.086 593.335 568.212 586.077 583.727C585.901 584.138 585.078 584.696 585.049 584.667C573.177 573.618 557.927 591.955 545.879 580.024C542.706 576.88 541.354 573.295 545.115 572.355C554.136 570.151 555.576 564.362 555.987 556.722C556.105 554.577 558.044 550.875 559.484 550.698C571.62 549.259 576.145 540.502 582.492 531.54C589.897 521.079 590.544 509.06 594.334 498.012C596.244 492.399 596.303 485.2 599.036 479.117C599.624 477.824 601.769 476.238 601.475 475.679C590.661 454.464 617.578 458.724 621.897 446.706C623.337 442.651 628.92 438.361 626.863 432.895C623.19 423.198 630.389 424.374 633.152 423.022Z" fill="white"/>
<path d="M753.688 448.94C753.482 442.916 753.717 438.655 756.127 434.659C759.682 428.753 760.417 423.581 751.69 421.73C748.81 421.112 747.752 419.114 748.457 416.323C749.251 413.208 752.101 412.855 754.275 413.326C765.383 415.794 776.725 403.276 788.42 414.854C791.124 417.528 797.353 409.329 800.321 404.304C806.139 394.49 809.313 382.971 820.126 376.33C822.918 374.626 824.916 371.981 828.589 372.128C836.229 372.393 838.022 368.073 838.962 361.168C840.549 349.561 860.325 333.928 870.903 333.958C881.393 333.987 887.094 340.745 890.591 348.621C894.734 357.936 898.201 366.428 910.367 366.486C915.891 366.516 918.653 371.305 921.768 374.89C929.232 383.471 933.022 397.046 948.861 393.755C949.772 393.579 951.564 395.166 952.21 396.341C960.262 411.621 979.568 416.205 986.62 432.866C988.295 436.804 990.881 443.974 999.49 441.946C1005.34 440.565 1002.61 446.677 1002.72 449.204C1002.87 453.142 1004.75 458.666 998.168 459.724C994.818 460.253 991.321 459.812 987.942 460.077C978.51 460.87 972.398 471.008 976.864 479.294C984.592 493.575 989.852 508.267 988.295 524.811C987.531 532.862 988.177 540.297 996.523 544.998C1004.1 549.288 995.876 560.866 1005.28 565.009C1007.63 566.038 1010.22 571.533 1010.63 571.298C1022.06 564.804 1021.59 581.083 1029.67 581.112C1032.31 581.112 1032.2 584.844 1032.2 587.224C1032.22 608.175 1022.2 624.748 1008.75 639.676C1006.25 642.438 1001.14 642.879 999.402 640.469C993.819 632.711 980.714 629.273 979.215 623.485C974.102 603.768 958.176 610.379 946.686 606.118C932.2 600.77 916.831 597.127 908.457 581.318C905.224 575.235 896.409 572.826 893.999 564.804C892.736 560.572 888.27 558.251 890.385 551.904C892.266 546.232 885.654 542.324 880.482 541.472C873.665 540.355 866.26 543.5 860.207 537.153C858.679 535.566 856.034 538.328 854.418 540.267C846.749 549.435 836.611 548.289 833.173 537.27C828.707 522.901 824.799 508.767 810.488 500.334C804.288 496.66 807.961 492.547 811.546 488.55C828.148 469.979 828.031 469.979 807.168 456.492C801.144 452.584 795.855 453.553 791.711 458.842C782.573 470.508 770.202 460.547 759.476 463.338C754.569 464.572 753.071 453.876 753.688 448.94Z" fill="white"/>
<path d="M1206.42 377.152C1201.96 382.479 1203.22 388.368 1204.07 394.768C1204.57 398.522 1202.35 401.889 1199.19 403.978C1189.64 410.289 1189.87 416.795 1201.86 426.46C1205.71 429.574 1208.94 434.482 1207.83 439.183C1203.18 458.871 1216.97 450.026 1224.49 450.055C1227.37 450.055 1229.19 444.854 1233.86 447.323C1235.04 459.635 1236.89 472.77 1227.4 482.908C1218.58 492.311 1215.67 502.478 1215.17 515.142C1214.85 523.87 1219.9 527.249 1224.84 529.13C1229.72 530.981 1233.07 525.339 1234.45 520.402C1236.33 513.703 1238.48 512.557 1245.76 515.965C1259.75 522.489 1264.57 532.538 1264.07 547.113C1263.86 552.99 1260.63 560.865 1266.95 564.626C1277.76 571.091 1288.99 580.67 1302.3 568.476C1305.33 565.684 1309.15 565.449 1313 568.035C1317.61 571.15 1322.96 571.62 1328.42 571.297C1339.85 570.65 1350.49 572.501 1360.01 579.701C1364.77 583.286 1371.47 585.431 1376.55 581.963C1392.01 571.443 1406.35 559.455 1423.16 550.816C1429.54 547.554 1431.74 538.915 1430.42 532.832C1427.07 517.464 1433.88 503.154 1432.68 487.697L1432.65 487.339C1431.24 469.44 1431.01 466.582 1414.34 472.829C1409.58 474.592 1405.73 475.091 1402.62 470.977C1398.33 465.335 1389.81 456.167 1391.28 453.993C1399.06 442.445 1395.39 430.485 1395.8 418.673C1396.59 413.824 1392.39 413.912 1389.69 412.472C1387.46 411.679 1384.58 410.298 1386.08 407.888C1388.93 403.246 1392.39 407.418 1395.6 408.153C1396.95 408.359 1398.21 408.123 1399.39 407.418C1399.97 406.125 1399.92 404.862 1399.06 403.657C1398.97 399.191 1395.86 396.517 1392.86 394.166C1383.67 386.937 1381.78 379.62 1392.39 372.333C1397.09 369.101 1394.48 366.956 1392.3 364.223C1390.31 361.696 1386.75 360.138 1387.84 355.76C1391.72 339.98 1386.81 336.983 1373.7 346.298C1372.53 347.121 1371.09 347.62 1369.83 348.326C1358.89 354.32 1344.97 350.441 1334.65 359.58C1331.92 362.019 1325.25 362.107 1324.16 354.497C1322.49 342.625 1318.14 343.301 1311.53 351.911C1307.59 357.024 1301.56 361.784 1296.57 353.556C1291.25 344.829 1282.93 339.011 1277 331.459C1267.48 319.323 1262.95 326.052 1257.99 333.633C1253.05 341.156 1246.88 344.682 1238.45 341.538C1221.49 335.191 1205.83 339.598 1190.9 347.268C1185.85 349.854 1182.65 353.879 1177.62 347.444C1175.48 344.711 1170.77 344.594 1168.45 347.562C1165.66 351.117 1169.54 352.822 1171.57 355.554C1178.88 365.398 1191.72 361.666 1200.25 368.16C1203.54 370.687 1210.41 372.362 1206.42 377.152Z" fill="white"/>
<path fill-rule="evenodd" clip-rule="evenodd" d="M536.064 568.593L525.78 558.309C523.429 555.958 519.903 554.391 518.433 553.901C514.516 545.086 508.443 525.986 515.495 520.109C522.547 514.232 525.29 507.865 525.78 505.416L527.249 486.316C522.841 488.275 512.85 492.487 508.149 493.662C506.565 494.058 505.301 493.921 504.156 493.796C501.053 493.458 498.823 493.215 493.456 503.947C493.456 505.416 490.518 507.179 478.764 502.478C482.682 502.478 490.518 502.184 490.518 501.009C490.518 500.758 490.561 500.295 490.617 499.684C490.891 496.708 491.487 490.224 489.049 487.785C488.64 487.376 488.145 486.825 487.569 486.183C484.008 482.211 477.332 474.767 468.48 476.032L468.479 476.032L468.478 476.032C458.195 477.501 458.195 477.501 455.256 478.97C452.906 480.145 446.441 478.48 443.503 477.501L465.541 461.339C462.603 460.849 456.432 459.87 455.256 459.87C453.787 459.87 447.91 462.808 446.441 465.747C444.972 468.685 430.279 459.87 430.279 456.931C430.279 453.993 419.995 452.524 419.995 459.87C419.995 465.747 410.2 485.826 405.302 495.132C399.426 501.988 386.496 515.407 381.795 514.232C375.918 512.762 349.472 523.047 346.533 527.455H336.249C333.31 530.393 326.845 535.976 324.495 534.801C322.144 533.626 310.782 528.434 305.395 525.986H300.987C298.538 524.027 295.404 519.227 302.456 515.701C309.508 512.175 311.272 507.375 311.272 505.416V469.709C310.782 465.45 308.039 456.638 300.987 455.462C292.172 453.993 293.641 436.362 299.518 436.362C304.219 436.362 310.292 424.608 312.741 418.731C313.231 412.855 316.267 401.395 324.495 402.57L330.372 384.939C333.8 382.49 341.832 377.593 346.533 377.593C351.235 377.593 359.267 366.819 362.695 361.431L371.51 346.739L374.449 345.27C375.428 341.352 376.212 333.222 371.51 332.047C366.809 330.871 355.838 321.762 350.941 317.354C347.023 313.926 337.424 308.245 330.372 312.947C323.319 317.648 322.536 317.844 323.025 317.354C321.556 312.947 318.618 303.837 318.618 302.662C318.618 301.487 314.7 285.521 312.741 277.685L309.802 267.4C307.843 264.952 304.219 259.76 305.395 258.585C306.129 257.85 307.966 257.116 309.802 256.381C311.639 255.647 313.475 254.912 314.21 254.177C314.945 253.443 319.72 249.77 324.495 246.097C329.27 242.423 334.045 238.75 334.779 238.016C336.249 236.547 353.879 210.1 352.41 205.693C350.941 201.285 349.472 188.062 352.41 186.593C359.267 179.246 375.33 163.379 384.733 158.677C394.136 153.976 403.344 160.636 406.772 164.554C411.179 170.921 419.995 184.829 419.995 189.531C420.974 193.449 422.933 202.754 422.933 208.631C422.933 214.998 423.227 228.025 424.403 229.2C425.578 230.376 431.749 233.608 434.687 235.077C435.667 237.036 437.332 241.542 436.156 243.893C434.981 246.243 443.503 254.667 447.91 258.585L468.48 274.747C476.315 279.644 494.926 289.145 506.68 287.97C521.372 286.5 534.595 287.97 537.534 289.439C539.884 290.614 541.451 295.806 541.941 298.254C543.41 300.213 546.937 304.131 549.287 304.131C551.638 304.131 555.164 308.049 556.634 310.008C559.082 309.518 564.274 307.07 565.449 301.193C566.624 295.316 577.693 297.765 583.08 299.724C587.977 303.152 598.066 310.302 599.241 311.477C600.711 312.947 605.118 320.293 602.18 327.639C599.241 334.985 591.895 343.801 590.426 345.27C588.957 346.739 586.018 382.001 587.487 386.408C588.663 389.934 594.834 389.837 597.772 389.347C600.221 388.367 605.412 387.878 606.588 393.754C607.763 399.631 611.975 423.629 613.934 434.893C612.464 440.77 608.644 452.23 605.118 451.055C601.592 449.879 591.895 454.483 587.487 456.932C586.508 458.89 584.843 464.278 586.018 470.155C587.194 476.032 585.529 484.357 584.549 487.785C584.549 491.703 584.843 499.833 586.018 501.009C587.487 502.478 572.795 525.985 569.857 525.985C566.918 525.985 566.918 531.862 566.918 533.332C566.918 533.597 566.966 533.91 567.019 534.253C567.257 535.814 567.592 538.004 563.98 539.209C559.572 540.678 546.349 545.086 536.064 568.593ZM399.455 297.973C396.833 298.868 393.163 304.418 399.455 319.455C401.825 325.121 403.958 329.81 405.78 333.818C410.004 343.108 412.563 348.735 412.563 354.363C412.563 357.609 412.338 359.864 412.166 361.592C411.911 364.152 411.772 365.555 412.649 367.309C413.85 369.711 417.806 378.53 407.32 375.845C398.931 373.697 395.085 385.691 394.212 391.956C393.338 395.537 392.639 403.234 396.833 405.383C401.028 407.531 402.077 411.648 402.077 413.438C401.203 416.124 400.914 419.936 402.965 424.179C404.756 427.885 404.529 430.209 404.325 432.301C404.263 432.939 404.203 433.556 404.203 434.184C404.203 436.088 406.57 438.786 409.247 441.838C410.347 443.092 411.499 444.405 412.56 445.747C426.343 463.173 458.283 422.254 462.603 415.794C465.759 411.072 460.292 393.014 456.891 381.783C455.639 377.647 454.667 374.437 454.509 373.16C454.099 369.837 463.876 364.224 473.208 358.868C480.305 354.794 487.145 350.868 489.049 348.209C490.022 346.85 491.39 345.197 492.883 343.393C496.651 338.839 501.22 333.318 502.272 329.109C502.82 326.918 503.457 322.216 504.065 317.728C504.614 313.677 505.139 309.801 505.554 308.102C506.428 303.627 501.954 293.813 491.467 291.665C487.58 289.44 474.357 293.847 472.367 297.542C463.676 313.684 467.049 317.373 471.418 318.268L472.367 326.856C474.115 329.541 453.989 346.061 443.503 348.209C439.309 348.209 432.308 342.831 428.812 340.145L428.81 340.144C425.315 338.354 420.421 331.552 428.81 318.663C436.289 307.172 436.09 306.175 435.893 305.197C435.814 304.803 435.736 304.413 436.158 303.344C437.535 299.853 423.05 289.917 399.455 297.973Z" fill="white"/>
<path d="M404.049 316.86C398.456 303.405 401.503 304.438 403.834 303.637C424.807 296.429 426.48 301.729 428.81 304.132C431.141 306.534 429.317 306.229 419.995 320.645C412.538 332.177 424.333 345.138 427.44 346.739C430.547 349.142 439.824 354.88 443.553 354.88C452.874 352.958 474.571 336.455 477.51 332.047V314.416C474.682 313.107 469.664 315.372 477.51 301.007C479.745 296.913 486.111 298.255 487.58 298.255C497.864 299.724 498.092 306.611 497.864 311.948C497.864 315.426 495.426 322.666 495.426 326.51C495.426 331.315 486.111 340.863 481.703 345.27C476.606 350.367 448.948 364.71 447.91 370.247C447.124 374.447 457.907 401.951 456.726 408.447C453.787 424.609 421.735 450.661 416.039 440.05C413.487 435.298 410.081 430.4 410.081 427.998C410.081 425.595 409.153 422.67 407.808 419.46C406.187 415.591 409.71 415.793 406.772 408.447C406.772 406.846 405.443 405.509 404.14 402.317C402.554 398.434 400.895 401.101 399.426 398.163C396.895 393.101 402.253 380.079 409.71 382.001C419.032 384.404 420.611 372.23 419.995 369.907C418.526 364.37 418.526 357.024 417.726 350.541C416.843 343.387 411.04 333.678 404.049 316.86Z" fill="white"/>
<path d="M843.796 429.079C842.382 429.079 841.109 428.772 839.976 428.159C838.842 427.532 837.949 426.672 837.296 425.579C836.656 424.486 836.336 423.266 836.336 421.919C836.336 420.572 836.656 419.352 837.296 418.259C837.949 417.166 838.842 416.312 839.976 415.699C841.109 415.072 842.382 414.759 843.796 414.759C845.196 414.759 846.462 415.072 847.596 415.699C848.729 416.312 849.616 417.166 850.256 418.259C850.896 419.339 851.216 420.559 851.216 421.919C851.216 423.279 850.896 424.506 850.256 425.599C849.616 426.679 848.729 427.532 847.596 428.159C846.462 428.772 845.196 429.079 843.796 429.079ZM843.796 427.299C844.822 427.299 845.742 427.066 846.556 426.599C847.382 426.132 848.029 425.492 848.496 424.679C848.976 423.852 849.216 422.932 849.216 421.919C849.216 420.906 848.976 419.992 848.496 419.179C848.029 418.352 847.382 417.706 846.556 417.239C845.742 416.772 844.822 416.539 843.796 416.539C842.769 416.539 841.836 416.772 840.996 417.239C840.169 417.706 839.516 418.352 839.036 419.179C838.569 419.992 838.336 420.906 838.336 421.919C838.336 422.932 838.569 423.852 839.036 424.679C839.516 425.492 840.169 426.132 840.996 426.599C841.836 427.066 842.769 427.299 843.796 427.299ZM858.249 424.439H856.049V428.919H854.129V418.319H856.049V422.799H858.289L861.729 418.319H863.789L859.769 423.419L864.069 428.919H861.809L858.249 424.439ZM874.936 418.319L869.796 429.979C869.343 431.059 868.81 431.819 868.196 432.259C867.596 432.699 866.87 432.919 866.016 432.919C865.496 432.919 864.99 432.832 864.496 432.659C864.016 432.499 863.616 432.259 863.296 431.939L864.116 430.499C864.663 431.019 865.296 431.279 866.016 431.279C866.483 431.279 866.87 431.152 867.176 430.899C867.496 430.659 867.783 430.239 868.036 429.639L868.376 428.899L863.696 418.319H865.696L869.396 426.799L873.056 418.319H874.936ZM885.436 418.319V428.919H883.516V419.999H878.956L878.836 422.359C878.769 423.786 878.642 424.979 878.456 425.939C878.269 426.886 877.962 427.646 877.536 428.219C877.109 428.792 876.516 429.079 875.756 429.079C875.409 429.079 875.016 429.019 874.576 428.899L874.696 427.279C874.869 427.319 875.029 427.339 875.176 427.339C875.709 427.339 876.109 427.106 876.376 426.639C876.642 426.172 876.816 425.619 876.896 424.979C876.976 424.339 877.049 423.426 877.116 422.239L877.296 418.319H885.436ZM893.688 429.039C892.635 429.039 891.688 428.806 890.848 428.339C890.008 427.872 889.348 427.232 888.868 426.419C888.402 425.592 888.168 424.659 888.168 423.619C888.168 422.579 888.402 421.652 888.868 420.839C889.348 420.012 890.008 419.372 890.848 418.919C891.688 418.452 892.635 418.219 893.688 418.219C894.742 418.219 895.682 418.452 896.508 418.919C897.348 419.372 898.002 420.012 898.468 420.839C898.948 421.652 899.188 422.579 899.188 423.619C899.188 424.659 898.948 425.592 898.468 426.419C898.002 427.232 897.348 427.872 896.508 428.339C895.682 428.806 894.742 429.039 893.688 429.039ZM893.688 427.359C894.368 427.359 894.975 427.206 895.508 426.899C896.055 426.579 896.482 426.139 896.788 425.579C897.095 425.006 897.248 424.352 897.248 423.619C897.248 422.886 897.095 422.239 896.788 421.679C896.482 421.106 896.055 420.666 895.508 420.359C894.975 420.052 894.368 419.899 893.688 419.899C893.008 419.899 892.395 420.052 891.848 420.359C891.315 420.666 890.888 421.106 890.568 421.679C890.262 422.239 890.108 422.886 890.108 423.619C890.108 424.352 890.262 425.006 890.568 425.579C890.888 426.139 891.315 426.579 891.848 426.899C892.395 427.206 893.008 427.359 893.688 427.359ZM909.181 423.419C910.554 423.766 911.241 424.626 911.241 425.999C911.241 426.932 910.887 427.652 910.181 428.159C909.487 428.666 908.447 428.919 907.061 428.919H901.961V418.319H906.881C908.134 418.319 909.114 418.559 909.821 419.039C910.527 419.506 910.881 420.172 910.881 421.039C910.881 421.599 910.727 422.086 910.421 422.499C910.127 422.899 909.714 423.206 909.181 423.419ZM903.841 422.879H906.721C907.454 422.879 908.007 422.746 908.381 422.479C908.767 422.212 908.961 421.826 908.961 421.319C908.961 420.306 908.214 419.799 906.721 419.799H903.841V422.879ZM906.921 427.439C907.721 427.439 908.321 427.312 908.721 427.059C909.121 426.806 909.321 426.412 909.321 425.879C909.321 425.332 909.134 424.926 908.761 424.659C908.401 424.392 907.827 424.259 907.041 424.259H903.841V427.439H906.921ZM918.366 424.439H916.166V428.919H914.246V418.319H916.166V422.799H918.406L921.846 418.319H923.906L919.886 423.419L924.186 428.919H921.926L918.366 424.439ZM929.784 418.219C931.25 418.219 932.37 418.579 933.144 419.299C933.93 420.019 934.324 421.092 934.324 422.519V428.919H932.504V427.519C932.184 428.012 931.724 428.392 931.124 428.659C930.537 428.912 929.837 429.039 929.024 429.039C927.837 429.039 926.884 428.752 926.164 428.179C925.457 427.606 925.104 426.852 925.104 425.919C925.104 424.986 925.444 424.239 926.124 423.679C926.804 423.106 927.884 422.819 929.364 422.819H932.404V422.439C932.404 421.612 932.164 420.979 931.684 420.539C931.204 420.099 930.497 419.879 929.564 419.879C928.937 419.879 928.324 419.986 927.724 420.199C927.124 420.399 926.617 420.672 926.204 421.019L925.404 419.579C925.95 419.139 926.604 418.806 927.364 418.579C928.124 418.339 928.93 418.219 929.784 418.219ZM929.344 427.559C930.077 427.559 930.71 427.399 931.244 427.079C931.777 426.746 932.164 426.279 932.404 425.679V424.199H929.444C927.817 424.199 927.004 424.746 927.004 425.839C927.004 426.372 927.21 426.792 927.624 427.099C928.037 427.406 928.61 427.559 929.344 427.559Z" fill="white"/>
</svg>
