<svg width="56" height="84" viewBox="0 0 56 84" fill="none" xmlns="http://www.w3.org/2000/svg">
<path d="M27.9814 3.97607C12.5644 3.97607 0.0651855 16.3393 0.0651855 31.8931C0.0651855 37.0777 1.66722 42.2621 4.42742 46.649C4.56062 47.0479 4.66272 47.0482 4.80151 47.447L22.1228 79.3521C22.9364 81.745 25.2416 83.739 27.8578 83.739C30.474 83.739 32.6515 81.745 33.4651 79.3521L52.7837 44.655C54.7738 40.6668 55.8984 36.2801 55.8984 31.8931C55.8984 16.3393 43.3996 3.97607 27.9814 3.97607ZM27.8578 19.5299C35.5669 19.5299 41.8163 25.911 41.8163 33.4885C41.8163 41.4647 35.5669 47.447 27.8578 47.447C20.1487 47.447 13.8993 41.4647 13.8993 33.4885C13.8993 25.911 20.1487 19.5299 27.8578 19.5299Z" fill="#5A5A5A"/>
<path d="M27.9814 0.112305C12.5644 0.112305 0.0651855 12.6112 0.0651855 28.0293C0.0651855 33.5449 1.66722 38.6569 4.42742 42.9841C4.56062 43.1955 4.66272 43.4028 4.80151 43.6102L22.1228 75.7627C22.9364 78.0997 25.2416 79.8744 27.8578 79.8744C30.474 79.8744 32.6515 78.0997 33.4651 75.7627L52.7837 40.8664C54.7738 37.0258 55.8984 32.6508 55.8984 28.0293C55.8984 12.6112 43.3996 0.112305 27.9814 0.112305ZM27.8578 15.9405C35.5669 15.9405 41.8163 22.1899 41.8163 29.899C41.8163 37.6081 35.5669 43.8575 27.8578 43.8575C20.1487 43.8575 13.8993 37.6081 13.8993 29.899C13.8993 22.1899 20.1487 15.9405 27.8578 15.9405Z" fill="#A9A9A9"/>
</svg>
